<svg width="18" height="18" viewBox="0 0 18 18" fill="none" xmlns="http://www.w3.org/2000/svg">
<path d="M0.447449 1.92852C0.447449 1.61026 0.573877 1.30503 0.798921 1.07999C1.02396 0.854944 1.32919 0.728516 1.64745 0.728516H16.0474C16.3657 0.728516 16.6709 0.854944 16.896 1.07999C17.121 1.30503 17.2474 1.61026 17.2474 1.92852V4.32852C17.2474 4.64678 17.121 4.952 16.896 5.17704C16.6709 5.40209 16.3657 5.52852 16.0474 5.52852H1.64745C1.32919 5.52852 1.02396 5.40209 0.798921 5.17704C0.573877 4.952 0.447449 4.64678 0.447449 4.32852V1.92852ZM0.447449 9.12852C0.447449 8.81026 0.573877 8.50503 0.798921 8.27999C1.02396 8.05494 1.32919 7.92852 1.64745 7.92852H8.84745C9.16571 7.92852 9.47093 8.05494 9.69598 8.27999C9.92102 8.50503 10.0474 8.81026 10.0474 9.12852V16.3285C10.0474 16.6468 9.92102 16.952 9.69598 17.177C9.47093 17.4021 9.16571 17.5285 8.84745 17.5285H1.64745C1.32919 17.5285 1.02396 17.4021 0.798921 17.177C0.573877 16.952 0.447449 16.6468 0.447449 16.3285V9.12852ZM13.6474 7.92852C13.3292 7.92852 13.024 8.05494 12.7989 8.27999C12.5739 8.50503 12.4474 8.81026 12.4474 9.12852V16.3285C12.4474 16.6468 12.5739 16.952 12.7989 17.177C13.024 17.4021 13.3292 17.5285 13.6474 17.5285H16.0474C16.3657 17.5285 16.6709 17.4021 16.896 17.177C17.121 16.952 17.2474 16.6468 17.2474 16.3285V9.12852C17.2474 8.81026 17.121 8.50503 16.896 8.27999C16.6709 8.05494 16.3657 7.92852 16.0474 7.92852H13.6474Z" fill="#3D3F47"/>
</svg>
